# xmcd
#
# Track frame offsets:
#	150
#	15044
#	31071
#	43978
#	62227
#	76561
#	89542
#	112610
#	125276
#	140593
#	156111
#	173229
#	185835
#	202998
#	216415
#	229671
#	241539
#
# Disc length: 3327 seconds
#
# Revision: 1
# Processed by: cddbd v1.4PL0 Copyright (c) Steve Scherf et al.
# Submitted via: CDmax 1.8
#
DISCID=d20cfd11
DTITLE=Bing Crosby and Fred Astaire - How Lucky Can You Get - Best of ...
DYEAR=1900
DGENRE=Blues
TTITLE0=Top Billing
TTITLE1=How Lucky Can You Get
TTITLE2=Roxie
TTITLE3=Spring, Spring, Spring
TTITLE4=Easy To Remember
TTITLE5=Change Partners
TTITLE6=Pick Yourself Up
TTITLE7=Mister Keyboard Ma
TTITLE8=I've A Shooting Box In Scotland
TTITLE9=In The Cool, Cool, Cool Of The Evening
TTITLE10=Bon Vivant
TTITLE11=Sing
TTITLE12=Dance In The Old Fashion Way
TTITLE13=I Love To Dance They Used To Dance
TTITLE14=A Couple Of Song And Dance
TTITLE15=That's Entertainment
TTITLE16=Top Billing II
EXTD=
EXTT0=
EXTT1=
EXTT2=
EXTT3=
EXTT4=
EXTT5=
EXTT6=
EXTT7=
EXTT8=
EXTT9=
EXTT10=
EXTT11=
EXTT12=
EXTT13=
EXTT14=
EXTT15=
EXTT16=
PLAYORDER=
